<svg xmlns="http://www.w3.org/2000/svg" width="860" height="419" viewBox="0 0 860 419">
  <defs>
  <linearGradient id="g0" x1="0%" y1="0%" x2="100%" y2="0%"><stop offset="0%" style="stop-color:#ED8B00"/><stop offset="100%" style="stop-color:#c97600"/></linearGradient>
  <linearGradient id="g1" x1="0%" y1="0%" x2="100%" y2="0%"><stop offset="0%" style="stop-color:#E34F26"/><stop offset="100%" style="stop-color:#b33d1e"/></linearGradient>
  <linearGradient id="g2" x1="0%" y1="0%" x2="100%" y2="0%"><stop offset="0%" style="stop-color:#6DB33F"/><stop offset="100%" style="stop-color:#4a8a2a"/></linearGradient>
  <linearGradient id="g3" x1="0%" y1="0%" x2="100%" y2="0%"><stop offset="0%" style="stop-color:#F80000"/><stop offset="100%" style="stop-color:#c20000"/></linearGradient>
  <linearGradient id="g4" x1="0%" y1="0%" x2="100%" y2="0%"><stop offset="0%" style="stop-color:#3776AB"/><stop offset="100%" style="stop-color:#1e5a8a"/></linearGradient>
  <linearGradient id="g5" x1="0%" y1="0%" x2="100%" y2="0%"><stop offset="0%" style="stop-color:#F7DF1E"/><stop offset="100%" style="stop-color:#c4b218"/></linearGradient>
  <linearGradient id="g6" x1="0%" y1="0%" x2="100%" y2="0%"><stop offset="0%" style="stop-color:#F05032"/><stop offset="100%" style="stop-color:#c03020"/></linearGradient>
  <linearGradient id="g7" x1="0%" y1="0%" x2="100%" y2="0%"><stop offset="0%" style="stop-color:#FF6F00"/><stop offset="100%" style="stop-color:#cc5800"/></linearGradient>
  
  </defs>
  <rect width="860" height="419" rx="12" fill="#1a1b27"/>
  <rect x="1" y="1" width="858" height="417" rx="11" fill="none" stroke="#6366f1" stroke-width="1" opacity="0.4"/>
  <text x="24" y="34" font-family="Arial,sans-serif" font-size="15" fill="#e2e8f0" font-weight="bold">⚡  Skill Proficiency</text>
  <line x1="24" y1="42" x2="836" y2="42" stroke="#6366f1" stroke-width="0.4" opacity="0.4"/>
  
  <!-- Java -->
  <text x="24" y="72" font-family="'Courier New',monospace" font-size="13" fill="#a8b2d8">Java</text>
  <rect x="220" y="59" width="560" height="20" rx="10" fill="#16213e" opacity="0.8"/>
  <rect x="220" y="59" width="403" height="20" rx="10" fill="url(#g0)"/>
  <text x="794" y="73" font-family="'Courier New',monospace" font-size="12" fill="#ED8B00" font-weight="bold">72%</text>
  <!-- HTML & CSS -->
  <text x="24" y="114" font-family="'Courier New',monospace" font-size="13" fill="#a8b2d8">HTML & CSS</text>
  <rect x="220" y="101" width="560" height="20" rx="10" fill="#16213e" opacity="0.8"/>
  <rect x="220" y="101" width="425" height="20" rx="10" fill="url(#g1)"/>
  <text x="794" y="115" font-family="'Courier New',monospace" font-size="12" fill="#E34F26" font-weight="bold">76%</text>
  <!-- Spring Boot -->
  <text x="24" y="156" font-family="'Courier New',monospace" font-size="13" fill="#a8b2d8">Spring Boot</text>
  <rect x="220" y="143" width="560" height="20" rx="10" fill="#16213e" opacity="0.8"/>
  <rect x="220" y="143" width="380" height="20" rx="10" fill="url(#g2)"/>
  <text x="794" y="157" font-family="'Courier New',monospace" font-size="12" fill="#6DB33F" font-weight="bold">68%</text>
  <!-- Oracle SQL -->
  <text x="24" y="198" font-family="'Courier New',monospace" font-size="13" fill="#a8b2d8">Oracle SQL</text>
  <rect x="220" y="185" width="560" height="20" rx="10" fill="#16213e" opacity="0.8"/>
  <rect x="220" y="185" width="369" height="20" rx="10" fill="url(#g3)"/>
  <text x="794" y="199" font-family="'Courier New',monospace" font-size="12" fill="#F80000" font-weight="bold">66%</text>
  <!-- Python -->
  <text x="24" y="240" font-family="'Courier New',monospace" font-size="13" fill="#a8b2d8">Python</text>
  <rect x="220" y="227" width="560" height="20" rx="10" fill="#16213e" opacity="0.8"/>
  <rect x="220" y="227" width="352" height="20" rx="10" fill="url(#g4)"/>
  <text x="794" y="241" font-family="'Courier New',monospace" font-size="12" fill="#3776AB" font-weight="bold">63%</text>
  <!-- JavaScript -->
  <text x="24" y="282" font-family="'Courier New',monospace" font-size="13" fill="#a8b2d8">JavaScript</text>
  <rect x="220" y="269" width="560" height="20" rx="10" fill="#16213e" opacity="0.8"/>
  <rect x="220" y="269" width="291" height="20" rx="10" fill="url(#g5)"/>
  <text x="794" y="283" font-family="'Courier New',monospace" font-size="12" fill="#F7DF1E" font-weight="bold">52%</text>
  <!-- Git & GitHub -->
  <text x="24" y="324" font-family="'Courier New',monospace" font-size="13" fill="#a8b2d8">Git & GitHub</text>
  <rect x="220" y="311" width="560" height="20" rx="10" fill="#16213e" opacity="0.8"/>
  <rect x="220" y="311" width="397" height="20" rx="10" fill="url(#g6)"/>
  <text x="794" y="325" font-family="'Courier New',monospace" font-size="12" fill="#F05032" font-weight="bold">71%</text>
  <!-- Machine Learning -->
  <text x="24" y="366" font-family="'Courier New',monospace" font-size="13" fill="#a8b2d8">Machine Learning</text>
  <rect x="220" y="353" width="560" height="20" rx="10" fill="#16213e" opacity="0.8"/>
  <rect x="220" y="353" width="156" height="20" rx="10" fill="url(#g7)"/>
  <text x="794" y="367" font-family="'Courier New',monospace" font-size="12" fill="#FF6F00" font-weight="bold">28%</text>
</svg>